<?xml version="1.0" encoding="iso-8859-1"?>
<!-- Generator: Adobe Illustrator 19.0.0, SVG Export Plug-In . SVG Version: 6.00 Build 0)  -->
<svg version="1.1" id="Layer_1" xmlns="http://www.w3.org/2000/svg" xmlns:xlink="http://www.w3.org/1999/xlink" x="0px" y="0px"
	 viewBox="0 0 512 512" style="enable-background:new 0 0 512 512;" xml:space="preserve">
<g>
	<g>
		<path d="M256,0c-70.592,0-128,57.408-128,128c0,63.296,46.229,115.861,106.667,126.08v236.587
			c0,11.776,9.536,21.333,21.333,21.333c11.797,0,21.333-9.557,21.333-21.333V254.08C337.771,243.861,384,191.296,384,128
			C384,57.408,326.592,0,256,0z M234.667,128c-11.776,0-21.333-9.557-21.333-21.333s9.557-21.333,21.333-21.333
			S256,94.891,256,106.667S246.443,128,234.667,128z"/>
	</g>
</g>
<g>
</g>
<g>
</g>
<g>
</g>
<g>
</g>
<g>
</g>
<g>
</g>
<g>
</g>
<g>
</g>
<g>
</g>
<g>
</g>
<g>
</g>
<g>
</g>
<g>
</g>
<g>
</g>
<g>
</g>
</svg>
